<?xml version="1.0" standalone="no"?>
<!DOCTYPE svg PUBLIC "-//W3C//DTD SVG 20010904//EN"
 "http://www.w3.org/TR/2001/REC-SVG-20010904/DTD/svg10.dtd">
<svg version="1.0" xmlns="http://www.w3.org/2000/svg"
 width="640.000000pt" height="640.000000pt" viewBox="0 0 640.000000 640.000000"
 preserveAspectRatio="xMidYMid meet">

<g transform="translate(0.000000,640.000000) scale(0.100000,-0.100000)"
fill="#000000" stroke="none">
<path d="M0 4880 c0 -836 2 -1520 5 -1520 3 0 52 32 108 72 56 39 108 71 115
71 6 0 12 4 12 8 0 14 69 51 81 43 7 -4 9 -3 6 4 -4 5 14 22 40 37 27 15 56
34 65 42 9 8 21 12 27 9 5 -4 13 -1 17 5 5 8 3 9 -7 4 -8 -5 -11 -5 -8 -2 3 4
25 18 50 32 114 63 161 85 172 79 7 -4 9 -3 5 1 -11 11 90 68 104 59 6 -4 8
-3 5 3 -3 5 14 19 38 31 l44 21 -3 -34 c-1 -19 2 -36 8 -38 6 -2 -26 -23 -72
-46 -46 -23 -88 -39 -95 -35 -7 4 -9 3 -4 -1 10 -12 -81 -67 -96 -59 -7 4 -9
4 -5 -1 9 -10 -112 -86 -124 -79 -5 3 -7 2 -6 -3 2 -4 -1 -8 -7 -8 -5 0 -9 4
-7 8 1 4 -7 3 -18 -3 -23 -12 -27 -22 -5 -14 22 9 19 -13 -3 -25 -13 -7 -23
-6 -32 2 -12 10 -12 9 -1 -5 11 -15 11 -19 -2 -24 -22 -8 -112 -93 -142 -133
-33 -46 -33 -94 0 -125 63 -59 336 -68 640 -21 200 30 200 30 196 46 -2 8 -17
59 -33 114 -58 199 -72 306 -72 565 0 249 7 313 60 522 75 301 249 622 460
851 36 39 43 53 38 73 -25 97 150 254 284 254 46 0 64 7 150 58 233 140 487
229 777 273 119 18 438 15 570 -5 259 -40 500 -124 719 -250 53 -31 109 -55
133 -58 23 -3 62 -16 88 -29 57 -29 143 -118 151 -158 4 -17 31 -55 68 -93 98
-99 211 -243 294 -373 37 -59 151 -302 177 -378 l30 -88 35 5 c19 3 39 5 44 6
5 0 6 3 3 7 -4 3 34 28 84 55 78 43 93 48 107 36 15 -12 16 -11 3 4 -11 15
-11 19 5 25 11 3 31 15 46 25 16 11 32 17 36 14 5 -3 18 1 28 10 18 14 18 15
-3 4 -45 -21 -22 -1 35 31 59 34 138 91 184 134 15 14 33 25 41 25 8 0 21 8
28 17 10 11 10 14 2 9 -19 -11 -15 8 6 30 30 32 36 80 15 112 -10 15 -17 31
-16 35 1 5 -1 6 -6 3 -5 -3 -31 2 -58 10 -96 31 -420 18 -667 -27 -48 -8 -60
-7 -73 5 -8 9 -12 21 -8 27 4 7 3 9 -4 5 -11 -6 -28 11 -19 20 5 6 229 43 262
44 69 2 101 6 105 12 3 3 41 9 85 12 44 3 125 11 180 17 137 16 559 16 665 1
112 -17 210 -41 238 -58 l22 -14 0 600 0 600 -3200 0 -3200 0 0 -1520z"/>
<path d="M5610 5170 c8 -5 20 -10 25 -10 6 0 3 5 -5 10 -8 5 -19 10 -25 10 -5
0 -3 -5 5 -10z"/>
<path d="M5650 5176 c0 -2 7 -7 16 -10 8 -3 12 -2 9 4 -6 10 -25 14 -25 6z"/>
<path d="M4998 5153 c7 -3 16 -2 19 1 4 3 -2 6 -13 5 -11 0 -14 -3 -6 -6z"/>
<path d="M6365 4640 c-10 -11 -22 -17 -28 -13 -5 3 -7 2 -4 -4 3 -5 -11 -26
-32 -46 -37 -36 -59 -49 -45 -25 4 7 3 8 -5 4 -6 -4 -9 -11 -6 -16 3 -4 -14
-23 -37 -41 -24 -19 -46 -38 -50 -44 -4 -5 -8 -7 -8 -3 0 4 -15 -6 -32 -23
-18 -16 -38 -29 -44 -29 -7 0 -14 -7 -18 -15 -3 -8 -10 -15 -16 -15 -6 0 -8 5
-4 12 4 7 3 8 -5 4 -6 -4 -9 -11 -6 -16 5 -8 -61 -54 -80 -55 -20 -2 -56 -17
-52 -22 3 -2 15 0 26 7 41 21 20 3 -44 -39 -37 -25 -69 -40 -76 -35 -7 4 -9 3
-6 -3 8 -13 -330 -206 -345 -197 -7 4 -8 3 -4 -4 8 -14 -110 -76 -126 -66 -6
4 -8 3 -5 -3 8 -12 -61 -46 -75 -37 -6 4 -8 3 -5 -3 3 -5 -29 -26 -72 -47
l-77 -38 -17 -124 c-42 -308 -135 -569 -293 -824 -45 -73 -54 -96 -54 -134 0
-59 -34 -127 -91 -184 -54 -53 -87 -72 -139 -76 -32 -3 -51 -14 -93 -52 -64
-60 -221 -178 -302 -226 -323 -193 -680 -291 -1060 -290 -264 0 -502 43 -730
132 -81 32 -127 44 -175 46 -96 4 -174 37 -235 98 -29 29 -54 64 -58 81 -4 22
-27 47 -85 92 -43 35 -124 109 -179 165 -64 65 -108 102 -119 101 -11 -1 -55
-9 -99 -17 -127 -23 -406 -64 -575 -82 -112 -13 -241 -18 -467 -18 l-313 -1 0
-1257 0 -1258 3200 0 3200 0 0 2330 c0 1282 -4 2330 -8 2330 -5 0 -17 -9 -27
-20z m-4500 -3555 c109 -154 214 -302 233 -328 l35 -49 170 170 170 170 -54
74 c-30 40 -57 78 -61 83 -10 12 -174 217 -206 257 l-23 28 245 0 245 0 112
-142 c61 -79 115 -144 119 -146 4 -1 45 39 91 90 160 176 192 208 209 208 10
0 21 -7 24 -16 4 -11 -24 -46 -96 -118 -56 -55 -124 -124 -151 -153 l-49 -52
68 -88 c88 -114 215 -274 272 -340 l44 -53 -260 0 -260 0 -22 38 c-31 51 -212
292 -221 292 -4 0 -63 -60 -131 -132 -67 -73 -139 -150 -159 -170 l-37 -38
-261 0 -261 0 -36 55 -37 55 -256 0 -257 0 -35 -52 c-21 -32 -44 -54 -57 -56
-42 -6 -31 14 98 184 62 81 370 503 432 592 l51 72 57 -77 c31 -43 146 -204
255 -358z m1784 166 c17 -13 30 -25 27 -28 -2 -3 4 -13 14 -23 10 -10 22 -39
25 -63 8 -49 -2 -110 -15 -102 -5 3 -12 0 -16 -6 -4 -8 -3 -9 4 -5 20 12 13
-12 -11 -38 -26 -28 -66 -46 -103 -46 -23 0 -24 3 -24 65 0 52 3 65 15 65 9 0
20 11 27 25 14 32 -5 57 -41 53 l-26 -3 -3 -177 -2 -178 -64 0 c-61 0 -64 1
-69 28 -3 15 -4 98 -2 184 5 179 14 213 74 254 31 22 45 25 96 22 44 -3 70
-10 94 -27z m1129 -171 c-2 -156 -6 -192 -18 -200 -8 -5 -11 -10 -6 -10 6 0
-3 -14 -20 -31 -60 -64 -144 -77 -210 -33 -45 31 -56 44 -49 62 3 7 1 11 -4 8
-5 -3 -14 8 -21 24 -16 38 -6 131 18 172 21 35 86 68 136 68 l37 0 -2 -63 -2
-63 -37 1 c-38 1 -43 -7 -41 -62 1 -44 4 -48 38 -47 62 2 65 12 64 198 l-2
166 61 0 61 0 -3 -190z m826 110 l1 -55 38 -3 37 -3 0 -55 0 -54 -41 0 -42 0
5 -51 c6 -57 16 -71 52 -71 25 0 26 -3 26 -54 l0 -54 -59 0 c-61 0 -111 25
-111 56 0 8 -4 13 -9 10 -4 -3 -11 15 -15 41 -8 63 -8 338 1 347 4 4 32 6 62
4 l54 -3 1 -55z m-1604 -105 c0 -52 -1 -55 -25 -55 -38 0 -82 -26 -89 -52 -3
-13 -6 -60 -6 -105 l0 -83 -60 0 -60 0 0 170 0 170 60 0 c57 0 60 -1 51 -19
-9 -16 -8 -18 9 -14 11 3 20 9 20 14 0 13 39 28 73 28 26 1 27 -1 27 -54z
m267 43 c42 -19 63 -39 85 -82 24 -47 26 -122 3 -170 -32 -67 -119 -110 -189
-92 -36 9 -98 66 -92 83 3 8 1 11 -4 8 -31 -19 -36 130 -5 182 40 68 134 101
202 71z m695 -104 c3 -88 6 -109 20 -118 32 -20 40 5 39 118 l-2 106 61 0 60
0 1 -87 c2 -180 -8 -213 -71 -246 -45 -23 -130 -18 -168 10 -50 36 -62 76 -62
206 l0 117 60 0 59 0 3 -106z m468 53 l0 -54 -41 -1 c-63 -3 -88 -50 -53 -100
11 -16 25 -22 55 -22 l39 0 0 -56 0 -56 -70 4 c-60 3 -73 7 -100 33 -32 31
-39 51 -14 41 9 -3 12 -2 9 5 -4 6 -13 8 -21 5 -39 -15 -44 133 -7 182 12 15
27 26 35 24 7 -2 10 -1 6 3 -8 8 10 29 32 38 8 3 41 6 73 6 l57 1 0 -53z"/>
<path d="M1211 977 l-113 -152 117 -3 c64 -1 165 -1 225 0 l110 3 -67 95 c-36
52 -76 109 -87 125 -29 42 -63 85 -67 85 -2 0 -55 -69 -118 -153z"/>
<path d="M3495 1260 c-3 -6 1 -7 9 -4 18 7 21 14 7 14 -6 0 -13 -4 -16 -10z"/>
<path d="M4200 1007 c-27 -9 -36 -18 -38 -38 -6 -54 63 -81 87 -35 14 25 7 66
-10 66 -6 0 -7 5 -4 10 7 12 9 12 -35 -3z"/>
<path d="M4327 873 c-4 -3 -7 -11 -7 -17 0 -6 5 -5 12 2 6 6 9 14 7 17 -3 3
-9 2 -12 -2z"/>
<path d="M5605 4130 c3 -6 -2 -10 -12 -11 -10 0 -13 -3 -6 -5 7 -3 20 -1 29 4
15 8 15 9 0 15 -10 4 -15 3 -11 -3z"/>
<path d="M629 3727 c6 -8 7 -18 3 -22 -4 -5 -1 -5 6 -1 10 6 10 11 1 22 -6 8
-14 14 -16 14 -3 0 0 -6 6 -13z"/>
<path d="M95 3400 c-3 -5 -1 -10 4 -10 6 0 11 5 11 10 0 6 -2 10 -4 10 -3 0
-8 -4 -11 -10z"/>
<path d="M1698 3383 c7 -3 16 -2 19 1 4 3 -2 6 -13 5 -11 0 -14 -3 -6 -6z"/>
<path d="M1258 2613 c7 -3 16 -2 19 1 4 3 -2 6 -13 5 -11 0 -14 -3 -6 -6z"/>
</g>
</svg>
